<svg xmlns="http://www.w3.org/2000/svg" width="296" height="275.596" viewBox="0 0 296 275.596">
  <g id="Online_Doctor-amico" data-name="Online Doctor-amico" transform="translate(-14.87 -37.226)">
    <g id="freepik--Floor--inject-57" transform="translate(14.87 161.287)">
      <ellipse id="freepik--floor--inject-57-2" data-name="freepik--floor--inject-57" cx="148" cy="75.767" rx="148" ry="75.767" fill="#f1e8e8"/>
    </g>
    <g id="freepik--Shadows--inject-57" transform="translate(36.697 201.115)">
      <ellipse id="freepik--Shadow--inject-57" cx="40.324" cy="24.908" rx="40.324" ry="24.908" transform="translate(170.223 35.034)" fill="#e0e0e0"/>
      <path id="freepik--shadow--inject-57-2" data-name="freepik--shadow--inject-57" d="M164.9,316.778l-25.839-14.913a3.038,3.038,0,0,0-2.772,0L50.647,351.316a.843.843,0,0,0,0,1.6l25.832,14.919a3.1,3.1,0,0,0,2.772,0l7.633-4.409L157.257,322.9l7.646-4.5a.856.856,0,0,0-.006-1.631Z" transform="translate(-50.071 -301.531)" fill="#e0e0e0"/>
    </g>
    <g id="freepik--Plants--inject-57" transform="translate(30.905 187.563)">
      <g id="freepik--plants--inject-57-2" data-name="freepik--plants--inject-57" transform="translate(232.777)">
        <path id="Path_2352" data-name="Path 2352" d="M420.123,343.906l-3.993-2.121s.391-19.5,4.434-34.594c4.142-15.458,16.2-32.535,27.587-26.136S439.3,300.606,433.207,313.3,420.123,343.906,420.123,343.906Z" transform="translate(-416.13 -279.675)" fill="#f68685"/>
        <path id="Path_2353" data-name="Path 2353" d="M420.123,343.906l-3.993-2.121s.391-19.5,4.434-34.594c4.142-15.458,16.2-32.535,27.587-26.136S439.3,300.606,433.207,313.3,420.123,343.906,420.123,343.906Z" transform="translate(-416.13 -279.675)" opacity="0.15"/>
        <path id="Path_2354" data-name="Path 2354" d="M421.48,341.6h0a.4.4,0,0,1-.391-.415c.856-30.254,14.082-48.726,25.15-55.348a.4.4,0,0,1,.415.694c-10.895,6.517-23.91,24.747-24.76,54.672a.4.4,0,0,1-.415.4Z" transform="translate(-418.014 -281.993)" fill="#fff"/>
        <path id="Path_2355" data-name="Path 2355" d="M423.3,359.529,419.73,357.7s.44-9.574,7.776-22.05c6.511-11.081,19.706-19.762,25.25-16.668,4.3,2.394,5.3,7.639,1.172,11.13S430.767,340.927,423.3,359.529Z" transform="translate(-417.498 -294.368)" fill="#f68685"/>
        <path id="Path_2356" data-name="Path 2356" d="M422.965,358.635c.62.124.837-1.408.961-1.8.236-.732.484-1.451.757-2.17a43.235,43.235,0,0,1,1.817-4.1,49.294,49.294,0,0,1,4.558-7.323,58.948,58.948,0,0,1,5.277-6.114,69.327,69.327,0,0,1,5.395-4.886c1.575-1.29,3.212-2.511,4.892-3.658,1.24-.843,2.48-1.649,3.776-2.406.676-.4,1.352-.788,2.052-1.147l.2-.1a.466.466,0,0,0-.409-.837c-.434.211-.85.446-1.24.682-1.091.62-2.158,1.24-3.206,1.935q-2.331,1.507-4.551,3.187-2.753,2.083-5.289,4.421a62.241,62.241,0,0,0-5.432,5.643,53.244,53.244,0,0,0-4.961,6.852,45.707,45.707,0,0,0-3.906,8.061q-.291.812-.558,1.618a4.762,4.762,0,0,0-.465,1.711.515.515,0,0,0,.316.434Z" transform="translate(-418.6 -296.531)" fill="#fff"/>
      </g>
      <g id="freepik--plants--inject-57-3" data-name="freepik--plants--inject-57" transform="translate(0 6.335)">
        <path id="Path_2357" data-name="Path 2357" d="M75.523,330.784s.1-12.16-4.682-22.224S58.582,291.689,51,290.132s-14.578,4.706-7.013,10.541,21.461,12.588,25.9,31.488Z" transform="translate(-40.73 -289.891)" fill="#f68685"/>
        <path id="Path_2358" data-name="Path 2358" d="M75.523,330.784s.1-12.16-4.682-22.224S58.582,291.689,51,290.132s-14.578,4.706-7.013,10.541,21.461,12.588,25.9,31.488Z" transform="translate(-40.73 -289.891)" opacity="0.15"/>
        <path id="Path_2359" data-name="Path 2359" d="M76.016,330.895a.31.31,0,0,1-.31-.291c-1.166-19.464-17.2-32.12-25.126-34.278a.31.31,0,0,1-.217-.378.316.316,0,0,1,.384-.223c8.061,2.2,24.394,15.068,25.578,34.842a.322.322,0,0,1-.291.329Z" transform="translate(-44.386 -292.103)" fill="#fff"/>
        <path id="Path_2360" data-name="Path 2360" d="M76.632,359.705a14.938,14.938,0,0,0,2.48-13.952,11.546,11.546,0,0,0-2.121-3.882,20.393,20.393,0,0,0-2.753-2.114c-1.922-1.594-4.155-3.286-4.849-5.816-.558-2.015-.44-3.925-1.556-5.816a5.866,5.866,0,0,0-2.964-2.6c-1.643-.62-3.454-.211-5.19,0-2.48.279-4.341-.577-6.486-1.718-2.362-1.24-5.122-2.22-7.683-1.457a6.2,6.2,0,0,0-3.968,8.315,29.916,29.916,0,0,0,2.4,3.807,4.672,4.672,0,0,1,.62,4.173c-.434,1.042-1.24,1.86-1.563,2.921-.918,2.79-.4,5.271,2.369,6.709,2.9,1.482,7.441.366,8.892,4.006a25.723,25.723,0,0,1,.862,4.372,11.781,11.781,0,0,0,4.768,7.242c3.33,2.313,7.85,1.749,11.3.136a15.2,15.2,0,0,0,5.438-4.322Z" transform="translate(-40.86 -302.119)" fill="#f68685"/>
        <path id="Path_2361" data-name="Path 2361" d="M56.179,353.2a.316.316,0,0,0,.2-.031,17.741,17.741,0,0,1,15.105,1.091.335.335,0,0,0,.453-.136.329.329,0,0,0-.13-.453,18.4,18.4,0,0,0-15.682-1.1.335.335,0,0,0,.087.62Z" transform="translate(-46.513 -313.229)" fill="#fff"/>
        <path id="Path_2362" data-name="Path 2362" d="M76.176,362.246a.31.31,0,0,1-.316-.3c-.577-14.014-14.646-28.834-24.078-32.864a.31.31,0,0,1-.167-.409.316.316,0,0,1,.415-.161c9.58,4.1,23.867,19.173,24.456,33.422a.316.316,0,0,1-.3.329Z" transform="translate(-44.856 -304.555)" fill="#fff"/>
      </g>
    </g>
    <g id="freepik--Device--inject-57" transform="translate(24.242 46.439)">
      <g id="freepik--Mobile--inject-57" transform="translate(35.615)">
        <path id="Path_2363" data-name="Path 2363" d="M172.025,59.793l-70.18,40.5a5.252,5.252,0,0,0-2.375,4.142V269.707c0,1.513,1.067,2.127,2.375,1.364l70.18-40.516a5.277,5.277,0,0,0,2.375-4.117V61.144C174.4,59.631,173.334,59.011,172.025,59.793Zm-1.042,154.4a3.285,3.285,0,0,1-2.034,2.766l-64.265,37.118c-1.116.62-2.034.124-2.034-1.178V115.457h0a4.043,4.043,0,0,1,2.028-3.5l64.265-37.124A1.358,1.358,0,0,1,170.984,76h0Z" transform="translate(-91.998 -54.884)" fill="#455a64"/>
        <path id="Path_2364" data-name="Path 2364" d="M172.932,223.5a3.285,3.285,0,0,1-2.034,2.766l-64.265,37.118c-1.116.62-2.034.124-2.034-1.178V124.765h0a4.043,4.043,0,0,1,2.028-3.5l64.265-37.124a1.358,1.358,0,0,1,2.04,1.172h0Z" transform="translate(-93.947 -64.192)" fill="#263238"/>
        <path id="Path_2365" data-name="Path 2365" d="M106.634,326.73,170.9,289.625a5.828,5.828,0,0,0,1.24-.9L104.6,250.69v74.862C104.6,326.854,105.518,327.375,106.634,326.73Z" transform="translate(-93.947 -127.539)" fill="#37474f"/>
        <path id="Path_2366" data-name="Path 2366" d="M167.73,222.321V87.2l-61.1,35.295A4.043,4.043,0,0,0,104.6,126V260.363l61.1-35.276A3.285,3.285,0,0,0,167.73,222.321Z" transform="translate(-93.947 -65.426)" fill="#66bfc5"/>
        <path id="Path_2367" data-name="Path 2367" d="M96.969,294.705a5.314,5.314,0,0,1-4.452-.149L89.8,292.988a5.233,5.233,0,0,1-2.381-4.111V123.564a4.551,4.551,0,0,1,.409-1.773c.087-.192.18-.378.285-.57l7.441,4.341h0a6.9,6.9,0,0,0-.409.868,4.39,4.39,0,0,0-.291,1.47V293.174C94.892,294.569,95.8,295.2,96.969,294.705Z" transform="translate(-87.42 -78.351)" fill="#263238"/>
        <path id="Path_2368" data-name="Path 2368" d="M159.672,347.3h0c1.519,0,1.68,1.705,1.68,2.437a9.493,9.493,0,0,1-4.235,7.329,3.367,3.367,0,0,1-1.637.521c-1.519,0-1.68-1.705-1.68-2.437a9.524,9.524,0,0,1,4.229-7.336,3.46,3.46,0,0,1,1.643-.515" transform="translate(-112.639 -164.244)" fill="#f68685"/>
        <path id="Path_2369" data-name="Path 2369" d="M159.1,96.812c.62-.372,1.16-.074,1.16.67a2.573,2.573,0,0,1-1.16,2.009.713.713,0,0,1-1.166-.67A2.548,2.548,0,0,1,159.1,96.812Z" transform="translate(-114.208 -69.017)" fill="#263238"/>
        <path id="Path_2370" data-name="Path 2370" d="M147.1,112.614c.57-.329,1.029-.062,1.029.62a2.263,2.263,0,0,1-1.029,1.78c-.57.329-1.029.062-1.029-.62A2.276,2.276,0,0,1,147.1,112.614Z" transform="translate(-109.702 -75.028)" fill="#263238"/>
        <path id="Path_2371" data-name="Path 2371" d="M152.581,105.242l11.527-6.653c.62-.366,1.141-.105,1.141.577a2.48,2.48,0,0,1-1.141,1.9l-11.527,6.653c-.62.366-1.141.105-1.141-.577A2.48,2.48,0,0,1,152.581,105.242Z" transform="translate(-111.743 -69.689)" fill="#263238"/>
        <path id="Path_2372" data-name="Path 2372" d="M170.242,57.966c-.174-1.24-1.16-1.68-2.344-.992L97.705,97.5a4.768,4.768,0,0,0-1.674,1.773L88.59,94.929a4.843,4.843,0,0,1,1.68-1.761L160.42,52.652a5.252,5.252,0,0,1,4.75,0l2.728,1.563A5.345,5.345,0,0,1,170.242,57.966Z" transform="translate(-87.865 -52.085)" fill="#37474f"/>
        <g id="freepik--device--inject-57-2" data-name="freepik--device--inject-57" transform="translate(61.136 3.933)">
          <g id="freepik--mobile--inject-57-2" data-name="freepik--mobile--inject-57">
            <path id="Path_2373" data-name="Path 2373" d="M188.848,65.411a2.611,2.611,0,0,1-2.375.043.75.75,0,0,1-.453-.62v-1a.905.905,0,0,1,.533-.713l7.522-4.341a2.642,2.642,0,0,1,2.381-.043.769.769,0,0,1,.446.62c0,.18,0,.85,0,1.023a.912.912,0,0,1-.533.719Z" transform="translate(-186.016 -58.446)" fill="#f68685"/>
            <path id="Path_2374" data-name="Path 2374" d="M188.848,65.411a2.611,2.611,0,0,1-2.375.043.75.75,0,0,1-.453-.62v-1a.905.905,0,0,1,.533-.713l7.522-4.341a2.642,2.642,0,0,1,2.381-.043.769.769,0,0,1,.446.62c0,.18,0,.85,0,1.023a.912.912,0,0,1-.533.719Z" transform="translate(-186.016 -58.446)" opacity="0.25"/>
            <path id="Path_2375" data-name="Path 2375" d="M188.845,64.406l7.522-4.341c.682-.4.713-1.011.081-1.377a2.642,2.642,0,0,0-2.381.043l-7.522,4.341c-.676.391-.713,1-.074,1.37A2.629,2.629,0,0,0,188.845,64.406Z" transform="translate(-186.014 -58.427)" fill="#f68685"/>
            <path id="Path_2376" data-name="Path 2376" d="M188.845,64.406l7.522-4.341c.682-.4.713-1.011.081-1.377a2.642,2.642,0,0,0-2.381.043l-7.522,4.341c-.676.391-.713,1-.074,1.37A2.629,2.629,0,0,0,188.845,64.406Z" transform="translate(-186.014 -58.427)" opacity="0.3"/>
          </g>
        </g>
        <g id="freepik--device--inject-57-3" data-name="freepik--device--inject-57" transform="translate(1.539 67.896)">
          <g id="freepik--mobile--inject-57-3" data-name="freepik--mobile--inject-57">
            <path id="Path_2377" data-name="Path 2377" d="M93.063,163.807a2.617,2.617,0,0,0-1.153-2.077.756.756,0,0,0-.788-.068c-.143.087-.713.4-.862.5a.905.905,0,0,0-.353.819V181.4a2.629,2.629,0,0,0,1.147,2.077.788.788,0,0,0,.769.062c.161-.081.738-.415.893-.508a.905.905,0,0,0,.353-.818Z" transform="translate(-89.902 -161.581)" fill="#f68685"/>
            <path id="Path_2378" data-name="Path 2378" d="M93.063,163.807a2.617,2.617,0,0,0-1.153-2.077.756.756,0,0,0-.788-.068c-.143.087-.713.4-.862.5a.905.905,0,0,0-.353.819V181.4a2.629,2.629,0,0,0,1.147,2.077.788.788,0,0,0,.769.062c.161-.081.738-.415.893-.508a.905.905,0,0,0,.353-.818Z" transform="translate(-89.902 -161.581)" opacity="0.3"/>
            <path id="Path_2379" data-name="Path 2379" d="M92.21,164.621V183.05c0,.781-.515,1.116-1.153.75a2.629,2.629,0,0,1-1.147-2.077V163.276c0-.788.515-1.122,1.147-.757a2.629,2.629,0,0,1,1.153,2.1Z" transform="translate(-89.905 -161.881)" fill="#f68685"/>
            <path id="Path_2380" data-name="Path 2380" d="M92.21,164.621V183.05c0,.781-.515,1.116-1.153.75a2.629,2.629,0,0,1-1.147-2.077V163.276c0-.788.515-1.122,1.147-.757a2.629,2.629,0,0,1,1.153,2.1Z" transform="translate(-89.905 -161.881)" opacity="0.4"/>
            <path id="Path_2381" data-name="Path 2381" d="M93.063,203.637a2.617,2.617,0,0,0-1.153-2.077.757.757,0,0,0-.787-.068c-.143.087-.713.4-.862.5a.905.905,0,0,0-.353.819v8.681a2.629,2.629,0,0,0,1.147,2.071.756.756,0,0,0,.763.081c.161-.081.738-.415.893-.508a.9.9,0,0,0,.353-.812Z" transform="translate(-89.902 -176.714)" fill="#f68685"/>
            <path id="Path_2382" data-name="Path 2382" d="M93.063,203.637a2.617,2.617,0,0,0-1.153-2.077.757.757,0,0,0-.787-.068c-.143.087-.713.4-.862.5a.905.905,0,0,0-.353.819v8.681a2.629,2.629,0,0,0,1.147,2.071.756.756,0,0,0,.763.081c.161-.081.738-.415.893-.508a.9.9,0,0,0,.353-.812Z" transform="translate(-89.902 -176.714)" opacity="0.3"/>
            <path id="Path_2383" data-name="Path 2383" d="M92.21,204.383v8.681c0,.781-.515,1.122-1.153.75a2.629,2.629,0,0,1-1.147-2.077v-8.681c0-.781.515-1.122,1.147-.757A2.642,2.642,0,0,1,92.21,204.383Z" transform="translate(-89.905 -176.995)" fill="#f68685"/>
            <path id="Path_2384" data-name="Path 2384" d="M92.21,204.383v8.681c0,.781-.515,1.122-1.153.75a2.629,2.629,0,0,1-1.147-2.077v-8.681c0-.781.515-1.122,1.147-.757A2.642,2.642,0,0,1,92.21,204.383Z" transform="translate(-89.905 -176.995)" opacity="0.4"/>
          </g>
        </g>
      </g>
      <g id="freepik--Doctor--inject-57" transform="translate(0 46.208)">
        <path id="Path_2385" data-name="Path 2385" d="M126.461,171.3a6.51,6.51,0,0,0,.248.887c.4,1.091,1.129,2.121,1.067,3.286-.068,1.315-1.1,2.331-1.9,3.379a10.9,10.9,0,0,0-1.649,9.8,21.567,21.567,0,0,0,3.138,5.581l2.995,4.248a10.206,10.206,0,0,0,3.386,2.859,19.433,19.433,0,0,0,8.4,2.48,22.323,22.323,0,0,0,13.741-3.6c4.31-2.852,2.412-10.169,6.821-12.842,5.333-3.224,7.875-14.423,1.339-19.1,0,0,1.054-6.858-.88-8.607a12,12,0,0,0-6.821-2.766c-3.46-.36-6.926.316-10.38.3a81.35,81.35,0,0,0-10.634.664c-1.24.167-2.989.62-3.658,1.829a2.716,2.716,0,0,0-.149,1.494,3.454,3.454,0,0,1-.806,2.176c-.769.93-1.86,1.556-2.679,2.431A6.337,6.337,0,0,0,126.461,171.3Z" transform="translate(-65.597 -138.077)" fill="#263238"/>
        <path id="Path_2386" data-name="Path 2386" d="M183.64,196.15c5.581.155,6.306,1.346,11.3,6.294,4.155,4.111,17.92,16.817,17.92,16.817l16.494,4.39-3.894,10.064s-3.72-.155-11.161-.161c-4.57,0-6.157-1.023-10.758-4.092-2.344-1.569-15.57-10.225-15.57-10.225Z" transform="translate(-88.361 -153.027)" fill="#e6e6e6"/>
        <path id="Path_2387" data-name="Path 2387" d="M263.173,207.68l-30.229,10.653L224.61,254.3l.676.719L254.026,244.3l9.816-35.9Z" transform="translate(-103.927 -157.407)" fill="#01b4d2"/>
        <path id="Path_2388" data-name="Path 2388" d="M233.614,225.579l-8.328,35.964-.676-.719,8.334-35.964Z" transform="translate(-103.927 -163.934)" opacity="0.35"/>
        <g id="Group_24" data-name="Group 24" transform="translate(145.604 79.485)" opacity="0.2">
          <path id="Path_2390" data-name="Path 2390" d="M264.8,254.877c.279.707,2.6,2.263,5.953,1.984l.564-2.071Z" transform="translate(-264.8 -254.79)"/>
        </g>
        <g id="Group_25" data-name="Group 25" transform="translate(136.731 56.813)" opacity="0.1">
          <path id="Path_2391" data-name="Path 2391" d="M264.572,219.773l.248-1.209c.136-.663-1.637-.316-3.962.781l-5.457,1.649c-2.325,1.1-4.52,1.916-4.663,2.58l-.248,1.2Z" transform="translate(-250.49 -218.227)"/>
        </g>
        <path id="Path_2392" data-name="Path 2392" d="M266.575,211.623c.087-.415-.62-.329-1.569-.074l-1.742.589s.713-1.749-3.41-.62c-4.533,1.24-4.632,3.491-4.632,3.491a19.493,19.493,0,0,1-2.176.794c-1.507.49-1.668.781-1.792,1.2l-.223.763,15.409-5.419S266.513,212.038,266.575,211.623Z" transform="translate(-113.964 -158.721)" fill="#37474f"/>
        <path id="Path_2393" data-name="Path 2393" d="M265.912,214.731c-1.426.62-2.015.961-2.232,1.99-.242,1.172-.291,1.662-.291,1.662l-8.024,3.162s.434-1.73.539-2.307-.955-.577-2.344.062l.329-1.439,12.482-4.632Z" transform="translate(-114.926 -159.516)" fill="#37474f"/>
        <path id="Path_2394" data-name="Path 2394" d="M265.236,219.8s.118-.539.254-1.209-1.637-.316-3.962.781l-5.457,1.649c-2.325,1.1-4.527,1.916-4.663,2.58l-.248,1.24Z" transform="translate(-114.014 -161.424)" fill="#37474f"/>
        <path id="Path_2395" data-name="Path 2395" d="M274.059,228.242s-1.073,3.944-1.358,4.961-5.233,3.28-7.708,3.59c-4.737.589-5.277,1.612-4.142,4.961,1.054,3.1,4.136,4.279,8.414,3.776a7.75,7.75,0,0,0,5.872-5.122c1.389-3.969.62-8.2,1.2-10.541S275.262,226.86,274.059,228.242Z" transform="translate(-117.504 -164.948)" fill="#ffa8a7"/>
        <path id="Path_2396" data-name="Path 2396" d="M189.364,270.183l-3.206,1.86-1.346.775-17.635,10.175-2.406,1.364L160.71,286.7l1.24-12.656,2.369-24.505v-.254l.112-1.1,3.1-32.039,1.358-14.02.477-5.029.161-1.625h.087a8.191,8.191,0,0,1,4.39,0,5.821,5.821,0,0,1,.93.372,10.341,10.341,0,0,1,4.13,4.613,14.444,14.444,0,0,1,.682,1.42,31.681,31.681,0,0,1,1.761,5.692h0a75.426,75.426,0,0,1,2.276,13.071,23.193,23.193,0,0,1-.236,4.465h0a99.212,99.212,0,0,0-.143,11.744C183.926,245.721,186.158,249.739,189.364,270.183Z" transform="translate(-79.65 -152.657)" fill="#e0e0e0"/>
        <path id="Path_2397" data-name="Path 2397" d="M172.7,301.556l-17.635,10.175-2.406,1.377-4.061,2.344-2.8,1.612-16.978,9.8c.18-6.821.26-14.218.1-21.207-.05-2.338-.068-4.725.031-7.168.322-8.483,1.935-17.579,7.714-27.153l.267-.484c.682,4.049,6.883,6.678,12.464,7.3l.62.056c.7.068,1.426.1,2.176.1h.471a55.146,55.146,0,0,0,16.742-3.33c.62,3.6,1.24,8.315,1.9,13.834q.446,3.72.905,7.931h0C172.337,298.307,172.529,299.913,172.7,301.556Z" transform="translate(-67.534 -181.407)" fill="#ffa8a7"/>
        <path id="Path_2398" data-name="Path 2398" d="M172.9,300.739l-1.346.775L153.922,311.69l-2.406,1.377-4.062,2.344-2.8,1.612-16.978,9.8-1.86,1.073c.093-7.342.155-14.535.149-19.049,0-4.2.093-7.931.322-11.242.453-6.536,1.4-11.453,2.97-15.173A79.99,79.99,0,0,1,135.8,270.74s1.55,5.233,13.146,6.058h.074q1.023.074,2.158.093h.881c14.435,0,16.029-3.64,16.029-3.64a151.469,151.469,0,0,1,3.342,16.252q.459,2.9.887,6.2C172.524,297.316,172.723,298.991,172.9,300.739Z" transform="translate(-66.394 -181.365)" fill="#f68685"/>
        <path id="Path_2399" data-name="Path 2399" d="M172.9,300.739l-1.346.775L153.922,311.69l-2.406,1.377-4.062,2.344-2.8,1.612-16.978,9.8-1.86,1.073c.093-7.342.155-14.535.149-19.049,0-4.2.093-7.931.322-11.242.453-6.536,1.4-11.453,2.97-15.173A79.99,79.99,0,0,1,135.8,270.74s1.55,5.233,13.146,6.058h.074q1.023.074,2.158.093h.881c14.435,0,16.029-3.64,16.029-3.64a151.469,151.469,0,0,1,3.342,16.252q.459,2.9.887,6.2C172.524,297.316,172.723,298.991,172.9,300.739Z" transform="translate(-66.394 -181.365)" fill="#01b4d2" opacity="0.4"/>
        <path id="Path_2400" data-name="Path 2400" d="M180.368,305.85s-1.612,5.122-8.4,7.993l-.322,1.569-1.984,9.617-2.406,1.377L168.7,315.8l.62-4.613a18.075,18.075,0,0,0,11.05-5.333Z" transform="translate(-82.138 -194.704)" opacity="0.2"/>
        <path id="Path_2401" data-name="Path 2401" d="M143.66,198.05l-6.821.719c-4.514,1.1-6.554,3.1-7.019,7.087a31.274,31.274,0,0,0,.236,13.022c1.426,5.63,5.233,19.408,5.233,19.408s-8.762,11.434-10.349,31.041c16.035,10.467,40.634,4.843,47.287-1.482-.558-5.99-4.384-22.428-4.861-27.767,0,0,.353-8.34,1.017-11.955,5.072-5.537,4.427-10.833,2.152-15.105-4.2-7.887-10.541-14.82-12.594-14.814Z" transform="translate(-66.06 -153.749)" fill="#f68685"/>
        <path id="Path_2402" data-name="Path 2402" d="M143.66,198.05l-6.821.719c-4.514,1.1-6.554,3.1-7.019,7.087a31.274,31.274,0,0,0,.236,13.022c1.426,5.63,5.233,19.408,5.233,19.408s-8.762,11.434-10.349,31.041c16.035,10.467,40.634,4.843,47.287-1.482-.558-5.99-4.384-22.428-4.861-27.767,0,0,.353-8.34,1.017-11.955,5.072-5.537,4.427-10.833,2.152-15.105-4.2-7.887-10.541-14.82-12.594-14.814Z" transform="translate(-66.06 -153.749)" fill="#fff" opacity="0.7"/>
        <path id="Path_2403" data-name="Path 2403" d="M147.043,240.719v.49a1.007,1.007,0,0,1,0,.155h0c-.236,2.48-.515,5.116-.812,7.8v.037c-.043.434-.093.868-.143,1.308-.912,8.092-2,16.742-2.834,24.617q-.307,2.865-.558,5.581c-.26,2.71-.539,5.68-.825,8.681l-16.978,9.8-1.86,1.073-4.744,2.734c.955-9.394,3.181-31.159,4.421-40.981.143-1.11.329-2.22.539-3.324l.167-.806.074-.329c.081-.372.161-.732.248-1.1s.167-.676.248-1c.192-.75.4-1.488.62-2.207.105-.347.2-.695.316-1.036s.2-.682.316-1.017c.223-.67.44-1.327.67-1.966a.087.087,0,0,1,0-.037c.105-.3.217-.62.329-.905.149-.422.3-.831.459-1.24l.186-.49c.093-.223.174-.44.26-.657.3-.763.62-1.488.9-2.164.062-.149.13-.3.192-.44s.161-.353.236-.527c.186-.434.372-.837.552-1.24.074-.174.155-.341.229-.5s.18-.372.26-.546l.118-.248.124-.242a.229.229,0,0,1,.043-.087.847.847,0,0,1,.062-.13.518.518,0,0,0,.037-.087,2.24,2.24,0,0,0,.136-.273l.415-.806c0-.043.043-.074.056-.112l.161-.3h0L125.508,216.8l-2.567-10.628V206h0c.118-.943.905-5.388,5.444-6.74a37.826,37.826,0,0,1,7.832-1.166c1.017-.062,1.935-.087,2.685-.105h1.9a.193.193,0,0,1,0,.043c.037.093.143.372.3.806h0a1.079,1.079,0,0,0,.074.211.27.27,0,0,1,0,.031,152.449,152.449,0,0,1,5.8,19.725c.273,1.339.5,2.648.657,3.888C148.1,226.569,147.762,233.055,147.043,240.719Z" transform="translate(-63.533 -153.726)" fill="#fafafa"/>
        <path id="Path_2404" data-name="Path 2404" d="M133.813,231.945s.62-3.057,1.532-9.661c1.06-7.615.682-11.378-.465-13.784l-6.467,12.333,5.159,21.393h0a82.15,82.15,0,0,0-7.441,20.463h0c5.072-14.33,10.622-18.6,10.622-18.6Z" transform="translate(-66.512 -157.719)" fill="#e6e6e6"/>
        <path id="Path_2405" data-name="Path 2405" d="M175.06,190.35c2.009,0,2.245.335,3.975,2.654,1.029,1.383,7.546,12.141,7.546,12.141s-5.184-6.821-9.1-8.892a8.737,8.737,0,0,0-2.418-.967Z" transform="translate(-85.102 -150.823)" fill="#ebebeb"/>
        <path id="Path_2406" data-name="Path 2406" d="M150.8,214.979c0-.62-.062-1.959-.167-3.646-.515-8.272-.763-15.713,2.028-16.333l.242,1.141c-2.034.44-1.364,11.087-1.11,15.093.112,1.724.2,3.1.167,3.77Z" transform="translate(-75.698 -152.59)" fill="#f68685"/>
        <path id="Path_2407" data-name="Path 2407" d="M136.1,139.313l4.341,3.553a2.635,2.635,0,0,0-.366-3.813A2.9,2.9,0,0,0,136.1,139.313Z" transform="translate(-70.3 -131.081)" fill="#263238"/>
        <path id="Path_2408" data-name="Path 2408" d="M147.432,166.659c0-2.722-6.343-6.821-9.617-12.544s-1.637-15.136,2.852-16.581c.037,0,.161-1.209.18-1.3a10.678,10.678,0,0,1,1.24-3.1,13.559,13.559,0,0,1,9.3-6.089c14.218-2.071,20.754,3.454,23.365,9.531a14.8,14.8,0,0,1,1.1,6.461,7.441,7.441,0,0,1-5.754,6.914Z" transform="translate(-70.297 -126.605)" fill="#263238"/>
        <path id="Path_2409" data-name="Path 2409" d="M169.538,139.41c2.784,1.24,5.432,5.475,5.388,17.393-.037,10.107-3.138,12.662-4.7,13.412s-4.62.366-7.59-.087v5.8s2.226,2.189,1.445,3.565-3.665,2.542-8.148,1.135c-5.078-1.594-6.238-4.961-6.238-4.961l-.118-12.736s-1.705,1.792-4.713-.837c-2.48-2.176-3.373-5.9-1.507-7.949s4.26-2.207,6.418.081l1.55-.818c2.766-.322,6.821-.788,9.81-2.294C168.8,147.217,169.594,142.988,169.538,139.41Z" transform="translate(-72.678 -131.47)" fill="#ffa8a7"/>
        <path id="Path_2410" data-name="Path 2410" d="M154.39,160.65l.037,5.581a2.629,2.629,0,0,0,2.7-2.716A2.9,2.9,0,0,0,154.39,160.65Z" transform="translate(-77.249 -139.54)" fill="#263238"/>
        <path id="Path_2411" data-name="Path 2411" d="M186.61,161.1A1.339,1.339,0,1,0,188,159.75a1.358,1.358,0,0,0-1.389,1.352Z" transform="translate(-89.49 -139.197)"/>
        <path id="Path_2412" data-name="Path 2412" d="M169.359,162.021a1.463,1.463,0,0,0,1.383,1.544,1.482,1.482,0,0,0,1.494-1.476,1.439,1.439,0,1,0-2.877-.093Z" transform="translate(-82.935 -139.522)"/>
        <path id="Path_2413" data-name="Path 2413" d="M190.214,156.322l-3.454-1.37a1.786,1.786,0,0,1,2.394-1.06A1.922,1.922,0,0,1,190.214,156.322Z" transform="translate(-89.547 -136.917)"/>
        <path id="Path_2414" data-name="Path 2414" d="M181.224,160.17l-.174,8.272,4.446-.986Z" transform="translate(-87.377 -139.357)" fill="#f28f8f"/>
        <path id="Path_2415" data-name="Path 2415" d="M172.824,176.23l4.341,1.346a2.208,2.208,0,0,1-2.766,1.662A2.48,2.48,0,0,1,172.824,176.23Z" transform="translate(-84.218 -145.459)" fill="#b16668"/>
        <path id="Path_2416" data-name="Path 2416" d="M175.238,179.808a2.288,2.288,0,0,0-2.288-2.269,1.763,1.763,0,0,0-.18,0,2.418,2.418,0,0,0,1.631,2.176,2.041,2.041,0,0,0,.837.093Z" transform="translate(-84.232 -145.955)" fill="#f28f8f"/>
        <path id="Path_2417" data-name="Path 2417" d="M168.544,186.063c-3.131-.372-9.586-2.17-10.634-4.793a6.9,6.9,0,0,0,2.313,3.33c1.947,1.674,8.321,3.417,8.321,3.417Z" transform="translate(-78.586 -147.374)" fill="#f28f8f"/>
        <path id="Path_2418" data-name="Path 2418" d="M151.265,190.376c-.819-.167-1.544.192-2.214,1.321s-2.139,3.534-2.139,3.534-.763,7.931,0,9.921c.657,1.711,7.906,8.129,7.906,8.129s-1.891,7.125-1.959,9.462,4.341,11.211,4.874,15.75c0,0,1.569-14.262.893-19.4-1.166-8.911-5.345-20.419-7.317-24.078Z" transform="translate(-74.279 -150.818)" fill="#ebebeb"/>
        <path id="Path_2419" data-name="Path 2419" d="M154.514,233.585a24.8,24.8,0,0,0-1.705-3.33h0c-1.029-1.705-2.3-3.342-3.448-3.764a1.587,1.587,0,0,0-.546-.112h-.062a1.5,1.5,0,0,0-.546.136,7.153,7.153,0,0,0-2.635,3.057,25.33,25.33,0,0,0-1.953,4.477,15.261,15.261,0,0,0,.186,5.333c.694,4.527,2.238,10.182,3.1,11.3a9.923,9.923,0,0,0,2.214,2.015,7.336,7.336,0,0,1-1.643.812,2.971,2.971,0,0,1-1.023.18v.812h.1a3.721,3.721,0,0,0,1.085-.18,8.352,8.352,0,0,0,2.276-1.147,8.365,8.365,0,0,0,2.362.955,3.48,3.48,0,0,0,1.2.074l-.1-.806a3.218,3.218,0,0,1-1.036-.081,7.441,7.441,0,0,1-1.711-.682,10.164,10.164,0,0,0,2.046-2.2c.484-.738,1.079-3.28,1.525-6.2.273-1.742.5-3.615.62-5.32A15.39,15.39,0,0,0,154.514,233.585Zm-2.561,16.407a9.437,9.437,0,0,1-2.114,2.189,9.3,9.3,0,0,1-2.294-2c-.806-1.048-2.294-6.567-2.964-10.92a14.124,14.124,0,0,1-.192-4.961,23.563,23.563,0,0,1,2-4.514c.856-1.476,1.767-2.561,2.4-2.586h0c.75,0,1.966,1.358,3.1,3.1.229.341.446.713.657,1.085a23.165,23.165,0,0,1,1.24,2.48,14.255,14.255,0,0,1,.223,4.961c-.087,1.24-.223,2.536-.4,3.826-.471,3.367-1.135,6.523-1.656,7.323Z" transform="translate(-73.094 -164.512)" fill="#455a64"/>
        <path id="Path_2420" data-name="Path 2420" d="M159.934,269.777a1.2,1.2,0,1,1-1.24-1.147,1.2,1.2,0,0,1,1.24,1.147Z" transform="translate(-78.446 -180.563)" fill="#263238"/>
        <path id="Path_2421" data-name="Path 2421" d="M148.724,270.3a1.191,1.191,0,1,1-.383-.828,1.2,1.2,0,0,1,.383.828Z" transform="translate(-74.187 -180.764)" fill="#263238"/>
        <path id="Path_2422" data-name="Path 2422" d="M154.584,238.768l-.688-.05a.273.273,0,0,1-.248-.285,13.57,13.57,0,0,0-.211-4.62c-1.2-2.939-3.72-6.622-4.781-6.579s-3.255,3.931-4.21,6.957a13.877,13.877,0,0,0,.18,4.626.267.267,0,0,1-.217.3l-.682.105a.273.273,0,0,1-.3-.236,13.658,13.658,0,0,1-.136-5.165c.508-1.625,2.908-7.708,5.32-7.807s5.32,5.754,5.965,7.336a13.835,13.835,0,0,1,.3,5.153A.279.279,0,0,1,154.584,238.768Z" transform="translate(-72.96 -164.374)" fill="#f68685"/>
        <path id="Path_2423" data-name="Path 2423" d="M96.739,199.908c-4.539-.074-6.635,1.457-9.512,5.308-2.282,3.057-11.161,19.576-14.107,24.4l-16.035-8.569c-3.243-2.238-4.291-5.773-6.343-7.838s-4.179-2.48-6.436-4.186-3.175-3.032-3.826-1.439,1.86,4.173,2.338,4.812,2.995,2.059-.273,2.108-9.735-3.336-11.31-3.937-1.482,1.277-.707,2.48.738,4.6,2.046,6.567a9.554,9.554,0,0,0,5.221,4.341c2.865,1.24,8.879,1.736,11.924,3.64S60.31,236.208,64.9,240.232c5.835,5.116,9.859,6.052,13.108,2.983,3.156-3.305,6.356-7.18,7.918-9.146,4.21-5.3,10.87-17.362,10.87-17.362S99.678,210.506,96.739,199.908Z" transform="translate(-29.984 -154.454)" fill="#ffa8a7"/>
        <path id="Path_2424" data-name="Path 2424" d="M113.134,199.18c-6.684,0-8.681,2.418-12.1,8.005s-12.2,21.579-12.2,21.579l-12.643-6.622s-2.276,5.01-4.694,10.175l10.541,9.134c3.386,2.933,7.875,5.233,12.036,1.643,4.446-3.832,18.863-23.743,18.863-23.743C116.353,213.138,115.59,203.719,113.134,199.18Z" transform="translate(-45.753 -154.178)" fill="#f0f0f0"/>
        <path id="Path_2425" data-name="Path 2425" d="M99.45,245.891c2.065,2.431,4.564,5.165,4.452,7.317,0,0,1.414-1.91-3.553-8.948Z" transform="translate(-56.376 -171.305)" fill="#e0e0e0"/>
      </g>
    </g>
    <g id="freepik--Icons--inject-57" transform="translate(16.333 83.478)">
      <path id="Path_2426" data-name="Path 2426" d="M44.3,147.529l-5.171,2.964.019-5.94-3.869-2.232-9.022,5.209v10.417l-9.022,5.209v10.417L21.1,175.8l5.153-2.976v5.959l3.869,2.232,9.022-5.215V165.387l9.022-5.209V149.761Z" transform="translate(-17.23 -123.405)" fill="#01b4d2"/>
      <path id="Path_2427" data-name="Path 2427" d="M23.47,166.755v10.417l9.022-5.209v10.424l9.022-5.215V166.755l9.022-5.209V151.129l-9.053,5.227.031-10.436-9.022,5.209v10.417Z" transform="translate(-19.601 -124.773)" fill="#01b4d2"/>
      <g id="Group_27" data-name="Group 27" transform="translate(0 18.915)" opacity="0.5">
        <path id="Path_2431" data-name="Path 2431" d="M30.121,169.752l-3.869-2.232-9.022,5.209,3.869,2.232Z" transform="translate(-17.23 -151.894)" fill="#fff"/>
        <path id="Path_2432" data-name="Path 2432" d="M44.671,144.552,40.8,142.32l-9.022,5.209,3.869,2.232Z" transform="translate(-22.758 -142.32)" fill="#fff"/>
        <path id="Path_2433" data-name="Path 2433" d="M61.573,152.952,57.7,150.72l-5.171,2.964-.012,4.5Z" transform="translate(-30.637 -145.511)" fill="#fff"/>
      </g>
      <g id="freepik--Heart--inject-57" transform="translate(140.844 0)">
        <path id="Path_2434" data-name="Path 2434" d="M278.989,115.031h0a3.547,3.547,0,0,0-.527-.378c-.657-.391-3.634-2.1-3.789-2.2-1.575-1-4.068-.781-6.288.341-3.181,1.606-5.829,5-7.85,10.647,0,0-2.046-1.47-2.71-1.86-1.643-.9-3.565-.465-5.73.943a15.6,15.6,0,0,0-5.618,6.759v.056h0a20.159,20.159,0,0,0-2.108,8.5c0,6.529,2.673,9.642,6.151,11.98.992.67,3.615,2.077,3.876,2.251a21.962,21.962,0,0,0,6.864,3l3.429.8,3.429-4.756a111.829,111.829,0,0,0,6.864-10.926c3.479-6.356,6.2-12.581,6.151-19.086C281.085,118.317,280.285,116.271,278.989,115.031Z" transform="translate(-244.37 -111.816)" fill="#66bfc5"/>
        <path id="Path_2438" data-name="Path 2438" d="M270.41,127h0l3.485,4.545,5.618-6.647-6.35-3.665A28.522,28.522,0,0,0,270.41,127Z" transform="translate(-254.263 -115.393)" fill="#66bfc5"/>
        <path id="Path_2440" data-name="Path 2440" d="M281.352,116.4h0c-1.519-1.358-4.285-1.24-6.728,0-3.33,1.687-6.083,5.326-8.142,11.49-2.059-3.782-4.812-3.9-8.142-1.736a15.514,15.514,0,0,0-5.618,6.759l-.031.056h0a20.27,20.27,0,0,0-2.1,8.5c0,6.529,2.679,9.642,6.151,11.98a21.964,21.964,0,0,0,6.864,3l3.429.8,3.429-4.756a111.832,111.832,0,0,0,6.864-10.926c3.479-6.356,6.2-12.581,6.151-19.086C283.448,119.689,282.648,117.643,281.352,116.4Z" transform="translate(-246.733 -113.188)" fill="#01b4d2"/>
        <g id="Group_28" data-name="Group 28" transform="translate(3.82 2.266)" opacity="0.07">
          <path id="Path_2441" data-name="Path 2441" d="M278.4,115.8a3.987,3.987,0,0,1,2.648.85.192.192,0,0,0,.056.068c1.277,1.166,1.99,3.237,2,5.816,0,6.79-3.1,13.381-6.108,18.925a110.476,110.476,0,0,1-6.821,10.889l-3.293,4.582-3.206-.75a21.746,21.746,0,0,1-6.765-2.952c-3.1-2.108-6.027-4.961-6-11.707a20.01,20.01,0,0,1,2.04-8.359V133.1a15.186,15.186,0,0,1,5.5-6.622,7.007,7.007,0,0,1,3.72-1.364c1.575,0,2.871.974,3.962,2.976a.316.316,0,0,0,.291.174h.031a.335.335,0,0,0,.285-.223c1.966-5.885,4.576-9.58,7.974-11.3a8.328,8.328,0,0,1,3.671-.949m0-.329a8.632,8.632,0,0,0-3.82.98c-3.33,1.687-6.083,5.326-8.142,11.49-1.191-2.2-2.617-3.156-4.254-3.156a7.373,7.373,0,0,0-3.888,1.42,15.514,15.514,0,0,0-5.618,6.759l-.031.056a20.27,20.27,0,0,0-2.1,8.5c0,6.529,2.679,9.642,6.151,11.98a21.963,21.963,0,0,0,6.864,3l3.429.8,3.429-4.756a111.839,111.839,0,0,0,6.864-10.926c3.479-6.356,6.2-12.581,6.151-19.086,0-2.8-.812-4.874-2.108-6.064h0a4.3,4.3,0,0,0-2.908-.961Z" transform="translate(-250.53 -115.47)"/>
        </g>
        <path id="Path_2442" data-name="Path 2442" d="M282.262,141.9l-6.672,3.857-2.48-9.022a.641.641,0,0,0-1.24.031l-3.863,17.647-3.249-8.892a.621.621,0,1,0-1.24.05l-2.2,7.794-7.342,4.241a11.507,11.507,0,0,0,.781,1.011l7.441-4.285a.651.651,0,0,0,.3-.378l1.73-6.151,3.33,9.09a.622.622,0,0,0,1.2-.081l3.782-17.251,2,7.323a.62.62,0,0,0,.924.378l5.928-3.417A20.663,20.663,0,0,0,282.262,141.9Z" transform="translate(-248.021 -121.107)" fill="#fff"/>
      </g>
    </g>
    <g id="freepik--Character--inject-57" transform="translate(214.141 84.942)">
      <g id="freepik--character--inject-57-2" data-name="freepik--character--inject-57" transform="translate(0 0)">
        <path id="Path_2443" data-name="Path 2443" d="M344.623,412.79a4.855,4.855,0,0,0-.062,2.586c.248.521,1.8,2.232,4.961,2.852s7.509,0,9.382-.112a89.757,89.757,0,0,1,9.617.856c2.939.4,5.2-.248,6.294-1.308a1.984,1.984,0,0,0,.44-1.55,7.663,7.663,0,0,0-.31-2.09Z" transform="translate(-339.343 -227.627)" fill="#263238"/>
        <path id="Path_2444" data-name="Path 2444" d="M374.552,406.258c.056.242.112.49.161.738a12.317,12.317,0,0,1,.267,3.807,3.43,3.43,0,0,1-2.251,1.705,11.389,11.389,0,0,1-6.343.13,44.907,44.907,0,0,0-7.441-.459,45.8,45.8,0,0,1-6.511.322,15.351,15.351,0,0,1-4.793-.98c-1.284-.546-2.6-1.24-2.914-2.58-.378-2.79.794-4.018,2.114-4.8s3.2-.719,5.209-.85c1.817-.124,3.144-.124,4.762-.248a23.505,23.505,0,0,0,4.155-.577c1.24-.384,2.48-1.941,2.989-2,0,0,8.092-.062,8.861,0,.893.074,1.166,2.84,1.277,3.441.087.471.105.98.229,1.432C374.4,405.651,374.477,405.955,374.552,406.258Z" transform="translate(-339.434 -222.937)" fill="#37474f"/>
        <path id="Path_2445" data-name="Path 2445" d="M349.421,413.627c-.254-2.009-.62-6.362,3.1-8.88h.465a9.2,9.2,0,0,0-5.116,0c-2.958.788-4.272,3.181-3.534,5.711C344.349,410.434,345.006,412.883,349.421,413.627Z" transform="translate(-339.237 -224.434)" fill="#fafafa"/>
        <path id="Path_2446" data-name="Path 2446" d="M368.073,403.911a7.157,7.157,0,0,0-1.612,3.472c-.155.905-1.792,1.042-1.637.167a9.424,9.424,0,0,1,1.42-3.361A2.821,2.821,0,0,1,368.073,403.911Z" transform="translate(-347.093 -224.236)" fill="#fafafa"/>
        <path id="Path_2447" data-name="Path 2447" d="M362.75,404.525a5.81,5.81,0,0,0-1.68,3.286c-.167.868-1.532.856-1.432,0a4.956,4.956,0,0,1,1.432-3.138A1.823,1.823,0,0,1,362.75,404.525Z" transform="translate(-345.124 -224.434)" fill="#fafafa"/>
        <path id="Path_2448" data-name="Path 2448" d="M384.708,391s-.217,5.2-.5,6.908c-.174,1.017-1.507,2.083-4.824,1.972-2.332-.081-4.167.112-4.074-1.711l.2-5.314Z" transform="translate(-351.079 -219.349)" fill="#ffa8a7"/>
        <path id="Path_2449" data-name="Path 2449" d="M398.782,371.18a8.947,8.947,0,0,0,.273,4.266c.831,2.245,2.592,3.274,3.627,4.155a30.127,30.127,0,0,1,3.007,3.472,19.936,19.936,0,0,0,2.809,3.33,5.544,5.544,0,0,0,5.419.763c1.321-.564,1.78-1.011,1.7-3.038s-6.542-2.716-6.542-2.716Z" transform="translate(-359.95 -211.819)" fill="#263238"/>
        <path id="Path_2450" data-name="Path 2450" d="M415,376.618c.552.2.688,1.2.775,3.181.062,1.5.726,3.72-1.451,4.644a5.512,5.512,0,0,1-5.742-1.16,71.2,71.2,0,0,0-4.589-5.475c-1.86-1.86-3.72-2.48-4.545-6.232-.527-2.406-.112-3.4,1.587-4.086,2.338-.949,6,2.145,7.838,2.635C410.449,370.541,414.449,376.419,415,376.618Z" transform="translate(-360.17 -210.348)" fill="#37474f"/>
        <path id="Path_2451" data-name="Path 2451" d="M411.452,371.785l-.31-.105a6,6,0,0,0-5.06,3.156c-.31.651.62,1.16,1.24.651a6.413,6.413,0,0,1,5.054-3.131A2.58,2.58,0,0,0,411.452,371.785Z" transform="translate(-362.748 -212.009)" fill="#fafafa"/>
        <path id="Path_2452" data-name="Path 2452" d="M414.293,373.67a5.953,5.953,0,0,0-4.7,3.131c-.31.62.651,1.16,1.24.62a6.139,6.139,0,0,1,4.217-2.995C414.783,374.178,414.535,373.912,414.293,373.67Z" transform="translate(-364.083 -212.765)" fill="#fafafa"/>
        <path id="Path_2453" data-name="Path 2453" d="M420.744,376.54l-.316,4.185a6.544,6.544,0,0,1-6.474.161c-.112-.229-.434-3.975-.434-3.975Z" transform="translate(-365.598 -213.855)" fill="#ffa8a7"/>
        <path id="Path_2454" data-name="Path 2454" d="M400.358,374.133s.18-4.446,6.5-5.06l.366.192a5.413,5.413,0,0,0-3.1-2.282,4.476,4.476,0,0,0-4.861,1.327C398.157,369.637,399.267,373.271,400.358,374.133Z" transform="translate(-360.007 -210.145)" fill="#fafafa"/>
        <path id="Path_2455" data-name="Path 2455" d="M406.516,294.9c-.905-7.323-1.24-11.4-1.24-11.4s-.18-10.312.446-19.842c.273-4.179.415-8.805.5-13.022a66.665,66.665,0,0,0-1.1-13.853s-32.424-6.449-32.827,5.444c-.49,14.262-.428,38.637-.98,47.944-.3,5.227.223,9.562.552,19.718.267,8.421.186,29.144.186,29.144,3.572,4.9,12,1.166,12,1.166s2.6-29.1,2.989-35.115a40.592,40.592,0,0,0-.273-9.741l3.342-30.13s.254,9.667.539,14.882,1.048,8.421,2.406,18.15c1.178,8.445,3.683,30,3.683,30a8.712,8.712,0,0,0,8.532,0S407.421,302.223,406.516,294.9Z" transform="translate(-349.528 -160.094)" fill="#01b4d2"/>
        <path id="Path_2456" data-name="Path 2456" d="M413.561,264.47s-4.061,5.184-9.3,7.41c0,0-2.269,18.224-2.251,17.864L401.42,271.4S409.221,267.955,413.561,264.47Z" transform="translate(-361.001 -171.277)" fill="#37474f"/>
        <path id="Path_2457" data-name="Path 2457" d="M420.812,169.914c3.491-.781,7.441,1.711,10.07,7.273,2.542,5.32,9.487,18.757,9.655,22.521.18,3.9-17.17,15.731-16.742,15.5.136-.068-2.995-8.948-2.995-8.948l8.427-6.976-4.582-9.438Z" transform="translate(-368.364 -135.3)" fill="#ffa8a7"/>
        <path id="Path_2458" data-name="Path 2458" d="M417.86,168.611c2.939-.36,8.266.75,10.3,4.285,2.952,5.116,5.643,11.031,9.072,18.677a11.73,11.73,0,0,1-9.859,6.027l-4.384-7.689Z" transform="translate(-367.246 -134.833)" fill="#01b4d2"/>
        <path id="Path_2459" data-name="Path 2459" d="M394,159.791l.508,10.851,10.752-.577-.329-12.606Z" transform="translate(-358.182 -130.621)" fill="#ffa8a7"/>
        <path id="Path_2460" data-name="Path 2460" d="M407.588,174.083a8.443,8.443,0,0,0-7.98-5.512h-2.728c-.446,1.829-6.046,2.48-10.833,1.383-1.445.384-7.441,1.86-8.681,2.232-3.441,1.141-4.5,4.651-5.035,15.874,0,0,.105,22.124,0,32.684,6.052,3.193,15.4,2.8,22.056,2.121,10.454-1.054,12.011-4.843,12.011-4.843-.44-6.157-.174-8.476,0-14.553.13-4.57,1.445-9.4,1.86-14.578C408.871,181.195,408.2,176.116,407.588,174.083Z" transform="translate(-349.949 -134.842)" fill="#f68685"/>
        <g id="freepik--Scarf--inject-57" transform="translate(27.757 29.883)">
          <path id="Path_2461" data-name="Path 2461" d="M387.381,164.534c-2.48-.174-5.581,1.8-6.381,6.04l2.021-.539Z" transform="translate(-381 -163.188)" fill="#f68685"/>
          <path id="Path_2462" data-name="Path 2462" d="M387.381,164.534c-2.48-.174-5.581,1.8-6.381,6.04l2.021-.539Z" transform="translate(-381 -163.188)" opacity="0.3"/>
          <path id="Path_2463" data-name="Path 2463" d="M390.451,164.621c1.86.62,7.286.533,9.1,0s1.8-1.339,1.8-1.339v-.911a5.128,5.128,0,0,1,2.933.911c1.16.943,3.156,4.341,3.1,5.971s-3.541,5.934-10.262,5.829-10.5-2.592-11.657-4.229l-1.166-1.643a18.8,18.8,0,0,1,3.162-4.651,5.283,5.283,0,0,1,2.945-1.439Z" transform="translate(-382.254 -162.37)" fill="#f68685"/>
          <path id="Path_2464" data-name="Path 2464" d="M390.451,164.621c1.86.62,7.286.533,9.1,0s1.8-1.339,1.8-1.339v-.911a5.128,5.128,0,0,1,2.933.911c1.16.943,3.156,4.341,3.1,5.971s-3.541,5.934-10.262,5.829-10.5-2.592-11.657-4.229l-1.166-1.643a18.8,18.8,0,0,1,3.162-4.651,5.283,5.283,0,0,1,2.945-1.439Z" transform="translate(-382.254 -162.37)" opacity="0.2"/>
        </g>
        <path id="Path_2465" data-name="Path 2465" d="M380.925,139.76s-2.561,3.888-2.269,4.266,2.176.732,2.176.732Z" transform="translate(-352.343 -123.897)" fill="#f28f8f"/>
        <path id="Path_2466" data-name="Path 2466" d="M389.134,122.089c-5.184,1.1-7.255,2.617-7.577,11.478-.31,8.619.775,11.459,1.9,12.619.763.781,5.01.924,7.149.329,2.679-.738,8.737-2.883,11.571-7.211,3.336-5.1,4.21-12,.62-14.838C397.8,120.476,391.249,121.642,389.134,122.089Z" transform="translate(-353.434 -116.99)" fill="#ffa8a7"/>
        <path id="Path_2467" data-name="Path 2467" d="M384.66,160.821c.62.62,3.59.856,5.823.583l-.031-1.284A12.631,12.631,0,0,1,384.66,160.821Z" transform="translate(-354.633 -131.632)" fill="#f28f8f"/>
        <path id="Path_2468" data-name="Path 2468" d="M379.58,122.606a6.1,6.1,0,0,0,4.465,1.073,3.342,3.342,0,0,0,.533,1.966,3.931,3.931,0,0,0,2.245,1.625,8.061,8.061,0,0,0-.881,3.59,1.953,1.953,0,0,0,.242,1.129.732.732,0,0,0,1.321,0,9.457,9.457,0,0,1,1.091-1.86,3.559,3.559,0,0,1,2.22-1.24c3.255-.353,3.665,3.906,2.362,5.674-2.133,2.89-3.944.93-3.944.93a9.574,9.574,0,0,0,2.79,7.36,13.772,13.772,0,0,0,7.112.18c2.89-3.975,4.706-5.909,6.25-9.338,3.262-7.261,1.687-11.819-.837-13.741-.5-3.342-3.131-4.843-6.139-5.531-4.489-1.036-8.681,1.631-13.133.62a21.789,21.789,0,0,1-2.164-.57,1.2,1.2,0,0,0-.874-.056.98.98,0,0,0-.422.992,4.451,4.451,0,0,0,1.364,2.263,9.828,9.828,0,0,1-2.908-.167,2.728,2.728,0,0,0-1,0,1.86,1.86,0,0,0-1.153,1.86,4.384,4.384,0,0,0,1.463,3.243Z" transform="translate(-352.145 -114.177)" fill="#263238"/>
        <path id="Path_2469" data-name="Path 2469" d="M420.722,123.552l3.1-1.86a1.808,1.808,0,0,0-3.1,1.86Z" transform="translate(-368.236 -116.699)" fill="#263238"/>
        <path id="Path_2470" data-name="Path 2470" d="M348.317,183.123q-1.054-4.142-2.034-8.3c-.62-2.548-1.575-5.5-.7-8.1a16.451,16.451,0,0,1,1.86-3.212,19.689,19.689,0,0,0,1.612-3.311c.217-.558.415-1.129.62-1.693s.5-.887.36-1.426c-.453-1.767-2.735.552-3.2,1.277a7.094,7.094,0,0,1-.719,1.079c-.3.316-1.023.713-1.37.248a1.241,1.241,0,0,1-.186-.62c-.236-2.722.744-5.159,1.556-7.7a3.567,3.567,0,0,0,.229-1.042,1.24,1.24,0,0,0-.353-.974,1.445,1.445,0,0,0-1.439-.186c-.459.155-.856.446-1.315.589s-.8.143-1.2.248a10.282,10.282,0,0,0-2.735,1.036,5.437,5.437,0,0,0-2.536,3.776,19.946,19.946,0,0,0-.471,6.1c.105,1.358.347,2.7.515,4.037l.558,4.483c.378,2.989.49,17.92,1,20.89s1.507,4.961,3.857,5.947c3.41,1.389,8.923-4.886,12.054-8.135Z" transform="translate(-336.235 -127.426)" fill="#ffa8a7"/>
        <path id="Path_2471" data-name="Path 2471" d="M350.344,199.933c-2.2,1.643-4.93,4.378-5.481,7.118,0,0-.546-4.93,5.481-9.3Z" transform="translate(-339.508 -145.929)" fill="#f28f8f"/>
        <path id="Path_2472" data-name="Path 2472" d="M368.2,174.51a12.293,12.293,0,0,0-9.115,4.074c-4.1,4.44-10.417,13.2-10.417,13.2s.825,6.97,7.534,9.469c0,0,9.754-9.3,11.85-13.307S370.621,177.294,368.2,174.51Z" transform="translate(-340.96 -137.099)" fill="#01b4d2"/>
        <g id="freepik--Pain--inject-57" transform="translate(11.828 12.199)">
          <path id="Path_2473" data-name="Path 2473" d="M369.379,144.679l-2.666-1.432,1.532-1.308-5.537-2.592,2.418-1.4-5.965-3.175,3.547,3.131-2.883,1.445,6.5,2.815-1.606,1.606Z" transform="translate(-356.773 -134.2)" fill="#f68685"/>
          <path id="Path_2474" data-name="Path 2474" d="M376.413,140.813l-1.736-1.662.949-.7L374.1,136.64l1.463-.5-.508-2.294,1.029,2.474-1.029.446,1.649,1.811-1.116.794Z" transform="translate(-362.449 -133.85)" fill="#f68685"/>
          <path id="Path_2475" data-name="Path 2475" d="M368.263,154.251l-3.274,2.555-1.209-1.78-2.865,1.556-1.172-2.2-4.434,1.135,5.128-2.456,1.47,2.028,2.381-1.277.992,1.705Z" transform="translate(-355.31 -141.148)" fill="#f68685"/>
        </g>
        <path id="Path_2476" data-name="Path 2476" d="M339.386,228.641h0a.49.49,0,0,1,.688.062,5.023,5.023,0,0,0,5.178,1.476.49.49,0,1,1,.285.936,6,6,0,0,1-6.2-1.786.484.484,0,0,1,.05-.688Z" transform="translate(-337.367 -157.622)" fill="#e0e0e0"/>
        <path id="Path_2477" data-name="Path 2477" d="M340.193,233.931a.484.484,0,0,1,.62,0,4.272,4.272,0,0,0,3.541.682.5.5,0,0,1,.577.391.484.484,0,0,1-.384.57,5.233,5.233,0,0,1-4.341-.924.484.484,0,0,1-.05-.688.186.186,0,0,1,.037-.031Z" transform="translate(-337.679 -159.632)" fill="#e0e0e0"/>
        <path id="Path_2478" data-name="Path 2478" d="M434.884,171.033h0a.484.484,0,0,1-.657-.217,5.041,5.041,0,0,0-4.694-2.642.491.491,0,1,1-.056-.98,6.015,6.015,0,0,1,5.624,3.181A.5.5,0,0,1,434.884,171.033Z" transform="translate(-371.484 -134.317)" fill="#e0e0e0"/>
        <path id="Path_2479" data-name="Path 2479" d="M436.268,166.479a.484.484,0,0,1-.62-.149,4.291,4.291,0,0,0-3.237-1.5.49.49,0,1,1,.037-.98,5.24,5.24,0,0,1,3.993,1.91.484.484,0,0,1-.124.663Z" transform="translate(-372.596 -133.049)" fill="#e0e0e0"/>
        <path id="Path_2480" data-name="Path 2480" d="M452.863,222.043h0a.49.49,0,0,1,.192-.664,5.029,5.029,0,0,0,2.412-4.812.484.484,0,0,1,.434-.539.49.49,0,0,1,.539.434,6.021,6.021,0,0,1-2.9,5.748.49.49,0,0,1-.682-.167Z" transform="translate(-380.522 -152.872)" fill="#e0e0e0"/>
        <path id="Path_2481" data-name="Path 2481" d="M458.173,223.215a.5.5,0,0,1,.118-.62,4.26,4.26,0,0,0,1.346-3.3.49.49,0,0,1,.98,0,5.283,5.283,0,0,1-1.711,4.08.49.49,0,0,1-.688-.081Z" transform="translate(-382.539 -153.926)" fill="#e0e0e0"/>
        <path id="Path_2482" data-name="Path 2482" d="M365.483,320.97h0a.5.5,0,0,1,.223.657,5.016,5.016,0,0,0,.757,5.326.5.5,0,0,1-.056.694.49.49,0,0,1-.688-.05,6.015,6.015,0,0,1-.893-6.405A.5.5,0,0,1,365.483,320.97Z" transform="translate(-346.89 -192.724)" fill="#e0e0e0"/>
        <path id="Path_2483" data-name="Path 2483" d="M361.24,323.816a.49.49,0,0,1,.26.583,4.266,4.266,0,0,0,.775,3.485.5.5,0,0,1-.118.682.49.49,0,0,1-.682-.118,5.264,5.264,0,0,1-.918-4.341.49.49,0,0,1,.62-.322Z" transform="translate(-345.425 -193.803)" fill="#e0e0e0"/>
      </g>
    </g>
    <g id="freepik--speech-bubbles--inject-57" transform="translate(151.001 37.226)">
      <g id="freepik--speech-bubble--inject-57" transform="translate(0 1.655)">
        <g id="freepik--speech-bubble--inject-57-2" data-name="freepik--speech-bubble--inject-57">
          <path id="Path_2484" data-name="Path 2484" d="M283.295,43.96a3.665,3.665,0,0,0-1.668-2.883l-1.352-.788a3.72,3.72,0,0,0-3.33,0l-31.407,18.15a3.677,3.677,0,0,0-1.668,2.883v16.24a3.683,3.683,0,0,0,1.668,2.883l1.358.781a3.665,3.665,0,0,0,3.33,0l31.4-18.143a3.664,3.664,0,0,0,1.668-2.883Z" transform="translate(-238.003 -39.895)" fill="#01b4d2"/>
          <path id="Path_2486" data-name="Path 2486" d="M243.87,89.683a3.683,3.683,0,0,0,1.668,2.883l1.358.781a3.72,3.72,0,0,0,3.045.136c-.788.3-1.383-.143-1.383-1.1V76.147a3.4,3.4,0,0,1,.49-1.643l-4.688-2.7a3.379,3.379,0,0,0-.49,1.643Z" transform="translate(-238.003 -52.016)" opacity="0.2"/>
          <path id="Path_2487" data-name="Path 2487" d="M283.543,43.488c-.192-.707-.837-.936-1.606-.49L250.53,61.142a3.318,3.318,0,0,0-1.178,1.24l-4.682-2.7a3.349,3.349,0,0,1,1.172-1.24l31.4-18.143a3.665,3.665,0,0,1,3.33,0l1.364.781a3.683,3.683,0,0,1,1.606,2.412Z" transform="translate(-238.307 -39.895)" fill="#fff" opacity="0.3"/>
          <path id="Path_2488" data-name="Path 2488" d="M244.973,85.624h0l-4.682-2.7-5.643,5.432a.794.794,0,0,0,.155,1.24l4.607,2.679a1.166,1.166,0,0,0,.62.13l4.961-.949V85.624Z" transform="translate(-234.412 -56.241)" fill="#f68685"/>
          <path id="Path_2489" data-name="Path 2489" d="M244.973,85.624h0l-4.682-2.7-5.643,5.432a.794.794,0,0,0,.155,1.24l4.607,2.679a1.166,1.166,0,0,0,.62.13l4.961-.949V85.624Z" transform="translate(-234.412 -56.241)" fill="#fff" opacity="0.5"/>
          <path id="Path_2490" data-name="Path 2490" d="M239.407,92.267l-2.48-1.42-.291-.192-1.327-.769-.161-.1-.353-.2a.794.794,0,0,1-.155-1.24l5.643-5.432,4.688,2.71-5.643,5.407a.787.787,0,0,0,.081,1.24Z" transform="translate(-234.408 -56.237)" fill="#fff" opacity="0.3"/>
        </g>
        <path id="Path_2491" data-name="Path 2491" d="M264.866,79.044a4.911,4.911,0,0,0-2.226,3.851c0,1.414,1,1.99,2.226,1.284a4.9,4.9,0,0,0,2.22-3.851C267.086,78.9,266.094,78.337,264.866,79.044Z" transform="translate(-245.134 -54.653)" fill="#fff"/>
        <path id="Path_2492" data-name="Path 2492" d="M278.08,71.4a4.905,4.905,0,0,0-2.22,3.851c0,1.414.992,1.99,2.22,1.277a4.9,4.9,0,0,0,2.22-3.844C280.287,71.266,279.308,70.69,278.08,71.4Z" transform="translate(-250.157 -51.749)" fill="#fff"/>
        <path id="Path_2493" data-name="Path 2493" d="M291.29,63.755a4.924,4.924,0,0,0-2.22,3.851c0,1.42.992,1.99,2.22,1.284a4.911,4.911,0,0,0,2.226-3.857C293.516,63.625,292.518,63.048,291.29,63.755Z" transform="translate(-255.175 -48.845)" fill="#fff"/>
      </g>
      <g id="freepik--speech-bubble--inject-57-3" data-name="freepik--speech-bubble--inject-57" transform="translate(83.247)">
        <g id="freepik--speech-bubble--inject-57-4" data-name="freepik--speech-bubble--inject-57" transform="translate(0 0.006)">
          <path id="Path_2494" data-name="Path 2494" d="M401.274,90.036l-2.251-4.21,1.811-5.227V77.38l-5.543,3.2v3.2l2.381,4.13a.391.391,0,0,0,.161.143h0Z" transform="translate(-378.777 -52.487)" fill="#66bfc5"/>
          <path id="Path_2496" data-name="Path 2496" d="M407.992,41.293a3.665,3.665,0,0,0-1.662-2.877l-1.352-.781a3.652,3.652,0,0,0-3.324,0l-31.332,18.1a3.72,3.72,0,0,0-1.662,2.883v16.2a3.665,3.665,0,0,0,1.662,2.877l1.352.781a3.721,3.721,0,0,0,3.324,0l13.642-7.937,2.381,4.117a.347.347,0,0,0,.62-.062l2.518-7.249L406.3,60.373A3.665,3.665,0,0,0,407.96,57.5Z" transform="translate(-368.66 -37.235)" fill="#01b4d2"/>
          <path id="Path_2497" data-name="Path 2497" d="M382.979,67.8l25.051-14.466c.744-.428,1.346-.124,1.346.682a2.877,2.877,0,0,1-1.346,2.226L382.979,70.706c-.738.428-1.339.124-1.339-.682a2.883,2.883,0,0,1,1.339-2.226Z" transform="translate(-373.591 -43.277)" fill="#fff"/>
          <path id="Path_2498" data-name="Path 2498" d="M382.979,78.191l25.051-14.46c.744-.428,1.346-.124,1.346.676a2.877,2.877,0,0,1-1.346,2.232L382.979,81.1c-.738.434-1.339.124-1.339-.676A2.883,2.883,0,0,1,382.979,78.191Z" transform="translate(-373.591 -47.228)" fill="#fff"/>
          <path id="Path_2499" data-name="Path 2499" d="M368.66,86.916a3.665,3.665,0,0,0,1.662,2.877l1.352.781a3.721,3.721,0,0,0,3.038.136c-.781.291-1.377-.149-1.377-1.1v-16.2a3.411,3.411,0,0,1,.484-1.637l-4.675-2.7a3.436,3.436,0,0,0-.484,1.643Z" transform="translate(-368.66 -49.33)" opacity="0.2"/>
        </g>
        <path id="Path_2500" data-name="Path 2500" d="M408.236,40.806c-.192-.707-.837-.93-1.606-.49L375.3,58.423a3.281,3.281,0,0,0-1.172,1.24l-4.675-2.7a3.379,3.379,0,0,1,1.172-1.24l31.326-18.106a3.72,3.72,0,0,1,3.33,0l1.352.781a3.652,3.652,0,0,1,1.606,2.406Z" transform="translate(-368.96 -37.226)" fill="#fff" opacity="0.2"/>
      </g>
    </g>
  </g>
</svg>
