<svg xmlns="http://www.w3.org/2000/svg" width="110.942" height="119.637" viewBox="0 0 110.942 119.637">
  <g id="Group_2146" data-name="Group 2146" transform="translate(-140 -260)">
    <path id="Path_3443" data-name="Path 3443" d="M76.152,55.471h39.79L83.428,22.943Z" transform="translate(135 260)" fill="#01b4d2"/>
    <path id="Path_3444" data-name="Path 3444" d="M45.849,55.471,59.586,41.757v-.023L80.915,20.448,60.467,0,14.4,46.06l-9.37,9.367Z" transform="translate(135 260)" fill="#01b4d2"/>
    <path id="Path_3445" data-name="Path 3445" d="M73.867,54.227l6.672-29.859L62.252,42.618Z" transform="translate(135 260)" fill="#01b4d2"/>
    <path id="Path_3446" data-name="Path 3446" d="M83.428,96.708l32.514-32.527H76.152Z" transform="translate(135 260)" fill="#f68685"/>
    <path id="Path_3447" data-name="Path 3447" d="M14.387,73.567l46.087,46.07L80.922,99.189,59.593,77.9V77.88L45.857,64.166H5l9.37,9.367Z" transform="translate(135 260)" fill="#f68685"/>
    <path id="Path_3448" data-name="Path 3448" d="M80.546,95.282,73.874,65.424,62.266,77.032Z" transform="translate(135 260)" fill="#f68685"/>
  </g>
</svg>
